<?xml version="1.0" encoding="iso-8859-1"?>
<!-- Uploaded to: SVG Repo, www.svgrepo.com, Generator: SVG Repo Mixer Tools -->
<svg version="1.1" id="Layer_1" xmlns="http://www.w3.org/2000/svg" xmlns:xlink="http://www.w3.org/1999/xlink" 
	 viewBox="0 0 480 480" xml:space="preserve">
<rect x="40" y="128" style="fill:#F2E7D5;" width="400" height="312"/>
<path style="fill:#BD852D;" d="M440,0H40C17.944,0,0,17.944,0,40v64c0,22.056,17.944,40,40,40h400c22.056,0,40-17.944,40-40V40
	C480,17.944,462.056,0,440,0z"/>
<path style="fill:#CA9D57;" d="M440,0H40C17.944,0,0,17.944,0,40v16c0-22.056,17.944-40,40-40h400c22.056,0,40,17.944,40,40V40
	C480,17.944,462.056,0,440,0z"/>
<path style="fill:#BD852D;" d="M440,424H40c-22.056,0-40,17.944-40,40v8c0,4.416,3.584,8,8,8h464c4.416,0,8-3.584,8-8v-8
	C480,441.944,462.056,424,440,424z"/>
<path style="fill:#CA9D57;" d="M328,416c0-4.416-3.584-8-8-8H160c-4.416,0-8,3.584-8,8l0,0c0,4.416,3.584,8,8,8h160
	C324.416,424,328,420.416,328,416L328,416z"/>
<path style="fill:#FCB23C;" d="M320,272h-8v-16c0-4.416-3.584-8-8-8H176c-4.416,0-8,3.584-8,8v96c0,30.88,25.12,56,56,56h32
	c22.28,0,41.512-13.112,50.52-32H320c13.232,0,24-10.768,24-24v-56C344,282.768,333.232,272,320,272z M328,352c0,4.408-3.592,8-8,8
	h-8.64c0.376-2.624,0.64-5.28,0.64-8v-64h8c4.408,0,8,3.592,8,8V352z"/>
<path style="fill:#CA9D57;" d="M304,144H176c-4.416,0-8,3.584-8,8v32c0,4.416,3.584,8,8,8h8v16c0,4.416,3.584,8,8,8s8-3.584,8-8v-16
	h80v16c0,4.416,3.584,8,8,8s8-3.584,8-8v-16h8c4.416,0,8-3.584,8-8v-32C312,147.584,308.416,144,304,144z"/>
<g>
	<circle style="fill:#FCB23C;" cx="111.68" cy="224.32" r="24.32"/>
	<circle style="fill:#FCB23C;" cx="111.68" cy="288.32" r="24.32"/>
	<path style="fill:#FCB23C;" d="M400,200h-40c-13.232,0-24,10.768-24,24v16c0,4.416,3.584,8,8,8h40c13.232,0,24-10.768,24-24v-16
		C408,203.584,404.416,200,400,200z"/>
</g>
<g>
	<path style="fill:#CA9D57;" d="M104,392H48c-4.416,0-8-3.584-8-8s3.584-8,8-8h56c4.416,0,8,3.584,8,8S108.416,392,104,392z"/>
	<path style="fill:#CA9D57;" d="M432,392h-56c-4.416,0-8-3.584-8-8s3.584-8,8-8h56c4.416,0,8,3.584,8,8S436.416,392,432,392z"/>
</g>
<circle style="fill:#FDC163;" cx="248" cy="72" r="30.72"/>
<path style="fill:#FCB23C;" d="M248,33.28c-18.6,0-34.168,13.2-37.864,30.72H200c-4.416,0-8,3.584-8,8s3.584,8,8,8h10.136
	c3.696,17.52,19.264,30.72,37.864,30.72c21.344,0,38.72-17.368,38.72-38.72S269.344,33.28,248,33.28z M248,94.72
	c-9.704,0-17.936-6.144-21.192-14.72H232c4.416,0,8-3.584,8-8s-3.584-8-8-8h-5.192c3.256-8.576,11.488-14.72,21.192-14.72
	c12.528,0,22.72,10.192,22.72,22.72S260.528,94.72,248,94.72z"/>
<circle style="fill:#FDC163;" cx="96" cy="72" r="30.72"/>
<path style="fill:#FCB23C;" d="M144,64h-10.136C130.168,46.48,114.6,33.28,96,33.28c-21.344,0-38.72,17.368-38.72,38.72
	S74.648,110.72,96,110.72c18.6,0,34.168-13.2,37.864-30.72H144c4.416,0,8-3.584,8-8S148.416,64,144,64z M96,94.72
	c-12.528,0-22.72-10.192-22.72-22.72S83.472,49.28,96,49.28c9.704,0,17.936,6.144,21.192,14.72H112c-4.416,0-8,3.584-8,8
	s3.584,8,8,8h5.192C113.936,88.576,105.704,94.72,96,94.72z"/>
<circle style="fill:#FDC163;" cx="384" cy="72" r="30.72"/>
<path style="fill:#FCB23C;" d="M384,33.28c-18.6,0-34.168,13.2-37.864,30.72H336c-4.416,0-8,3.584-8,8s3.584,8,8,8h10.136
	c3.696,17.52,19.264,30.72,37.864,30.72c21.344,0,38.72-17.368,38.72-38.72S405.344,33.28,384,33.28z M384,94.72
	c-9.704,0-17.936-6.144-21.192-14.72H368c4.416,0,8-3.584,8-8s-3.584-8-8-8h-5.192c3.256-8.576,11.488-14.72,21.192-14.72
	c12.528,0,22.72,10.192,22.72,22.72S396.528,94.72,384,94.72z"/>
</svg>
